<svg width="12" height="20" viewBox="0 0 12 20" fill="none" xmlns="http://www.w3.org/2000/svg">
<path d="M0.362093 9.0976L9.14286 0.316832C9.35408 0.105611 9.61056 0 9.91231 0C10.2141 0 10.4705 0.105611 10.6818 0.316832L11.6775 1.31259C11.8887 1.52381 11.9943 1.78029 11.9943 2.08204C12.0245 2.38378 11.934 2.64026 11.7228 2.85149L4.70721 9.86704L11.7228 16.8826C11.934 17.0938 12.0245 17.3503 11.9943 17.6521C11.9943 17.9538 11.8887 18.2103 11.6775 18.4215L10.6818 19.4173C10.4705 19.6285 10.2141 19.7341 9.91231 19.7341C9.61056 19.7341 9.35408 19.6285 9.14286 19.4173L0.362093 10.6365C0.120698 10.4253 0 10.1688 0 9.86704C0 9.5653 0.120698 9.30882 0.362093 9.0976Z" fill="#54595F"/>
</svg>
